<?xml version="1.0" encoding="UTF-8" standalone="no"?><svg xmlns="http://www.w3.org/2000/svg" xmlns:xlink="http://www.w3.org/1999/xlink" contentScriptType="application/ecmascript" contentStyleType="text/css" height="914px" preserveAspectRatio="none" style="width:994px;height:914px;" version="1.1" viewBox="0 0 994 914" width="994px" zoomAndPan="magnify"><defs><filter height="300%" id="f5za2aiy5a90h" width="300%" x="-1" y="-1"><feGaussianBlur result="blurOut" stdDeviation="2.0"/><feColorMatrix in="blurOut" result="blurOut2" type="matrix" values="0 0 0 0 0 0 0 0 0 0 0 0 0 0 0 0 0 0 .4 0"/><feOffset dx="4.0" dy="4.0" in="blurOut2" result="blurOut3"/><feBlend in="SourceGraphic" in2="blurOut3" mode="normal"/></filter></defs><g><!--MD5=[975d7fda8cf98ff1a26ca528bf10cecf]
cluster App--><rect fill="#FFFFFF" filter="url(#f5za2aiy5a90h)" height="895" style="stroke:#000000;stroke-width:1.5;" width="853" x="129" y="7"/><text fill="#000000" font-family="sans-serif" font-size="14" font-weight="bold" lengthAdjust="spacing" textLength="31" x="540" y="21.9951">App</text><ellipse cx="273.4744" cy="152.8949" fill="#FEFECE" filter="url(#f5za2aiy5a90h)" rx="87.4744" ry="19.8949" style="stroke:#A80036;stroke-width:1.5;"/><text fill="#000000" font-family="sans-serif" font-size="14" lengthAdjust="spacing" textLength="136" x="205.4744" y="155.7416">Gestion des stages</text><ellipse cx="273.6551" cy="416.031" fill="#FEFECE" filter="url(#f5za2aiy5a90h)" rx="78.1551" ry="18.031" style="stroke:#A80036;stroke-width:1.5;"/><text fill="#000000" font-family="sans-serif" font-size="14" lengthAdjust="spacing" textLength="114" x="214.2659" y="419.6166">Ajouter un offre</text><ellipse cx="273.4652" cy="226.193" fill="#FEFECE" filter="url(#f5za2aiy5a90h)" rx="78.9652" ry="18.193" style="stroke:#A80036;stroke-width:1.5;"/><text fill="#000000" font-family="sans-serif" font-size="14" lengthAdjust="spacing" textLength="116" x="213.4" y="229.6886">Annuler un offre</text><ellipse cx="273.3717" cy="320.8743" fill="#FEFECE" filter="url(#f5za2aiy5a90h)" rx="112.3717" ry="24.8743" style="stroke:#A80036;stroke-width:1.5;"/><text fill="#000000" font-family="sans-serif" font-size="14" lengthAdjust="spacing" textLength="191" x="177.8717" y="323.721">Consulter toutes les offres</text><ellipse cx="273.564" cy="70.1128" fill="#FEFECE" filter="url(#f5za2aiy5a90h)" rx="128.564" ry="28.1128" style="stroke:#A80036;stroke-width:1.5;"/><text fill="#000000" font-family="sans-serif" font-size="14" lengthAdjust="spacing" textLength="173" x="182.064" y="65.7119">Convoquer les étudiants</text><text fill="#000000" font-family="sans-serif" font-size="14" lengthAdjust="spacing" textLength="127" x="207.064" y="82.0088">pour un entretien</text><ellipse cx="608.8073" cy="560.8615" fill="#FEFECE" filter="url(#f5za2aiy5a90h)" rx="72.3073" ry="16.8615" style="stroke:#A80036;stroke-width:1.5;"/><text fill="#000000" font-family="sans-serif" font-size="14" lengthAdjust="spacing" textLength="99" x="556.3073" y="564.609">S'authentifier</text><ellipse cx="273.3973" cy="495.1795" fill="#FEFECE" filter="url(#f5za2aiy5a90h)" rx="118.8973" ry="26.1795" style="stroke:#A80036;stroke-width:1.5;"/><text fill="#000000" font-family="sans-serif" font-size="14" lengthAdjust="spacing" textLength="205" x="170.8973" y="498.0261">Voir les entreprises inscrites</text><ellipse cx="273.3093" cy="642.7619" fill="#FEFECE" filter="url(#f5za2aiy5a90h)" rx="96.8093" ry="21.7619" style="stroke:#A80036;stroke-width:1.5;"/><text fill="#000000" font-family="sans-serif" font-size="14" lengthAdjust="spacing" textLength="157" x="194.8093" y="645.6085">Gestion des étudiants</text><ellipse cx="273.6007" cy="571.215" fill="#FEFECE" filter="url(#f5za2aiy5a90h)" rx="52.6007" ry="14.715" style="stroke:#A80036;stroke-width:1.5;"/><text fill="#000000" font-family="sans-serif" font-size="14" lengthAdjust="spacing" textLength="53" x="242.1007" y="574.9626">Ajouter</text><ellipse cx="273.5594" cy="715.2119" fill="#FEFECE" filter="url(#f5za2aiy5a90h)" rx="64.0594" ry="15.2119" style="stroke:#A80036;stroke-width:1.5;"/><text fill="#000000" font-family="sans-serif" font-size="14" lengthAdjust="spacing" textLength="76" x="232.5594" y="718.9594">Supprimer</text><ellipse cx="273.288" cy="783.8576" fill="#FEFECE" filter="url(#f5za2aiy5a90h)" rx="82.288" ry="18.8576" style="stroke:#A80036;stroke-width:1.5;"/><text fill="#000000" font-family="sans-serif" font-size="14" lengthAdjust="spacing" textLength="124" x="210.4505" y="786.9838">Améliorer son CV</text><ellipse cx="273.2877" cy="861.8575" fill="#FEFECE" filter="url(#f5za2aiy5a90h)" rx="107.2877" ry="23.8575" style="stroke:#A80036;stroke-width:1.5;"/><text fill="#000000" font-family="sans-serif" font-size="14" lengthAdjust="spacing" textLength="180" x="183.2877" y="864.7042">Consulter les entreprises</text><ellipse cx="891.1396" cy="860.0473" fill="#FEFECE" filter="url(#f5za2aiy5a90h)" rx="66.6396" ry="26.0473" style="stroke:#A80036;stroke-width:1.5;"/><text fill="#000000" font-family="sans-serif" font-size="14" lengthAdjust="spacing" textLength="53" x="864.6396" y="854.7455">Postule</text><text fill="#000000" font-family="sans-serif" font-size="14" lengthAdjust="spacing" textLength="78" x="852.1396" y="871.0424">à une offre</text><ellipse cx="891.1249" cy="773.0473" fill="#FEFECE" filter="url(#f5za2aiy5a90h)" rx="75.1249" ry="26.0473" style="stroke:#A80036;stroke-width:1.5;"/><text fill="#000000" font-family="sans-serif" font-size="14" lengthAdjust="spacing" textLength="67" x="857.6249" y="767.7455">Accepter</text><text fill="#000000" font-family="sans-serif" font-size="14" lengthAdjust="spacing" textLength="90" x="846.1249" y="784.0424">un entretien</text><ellipse cx="891.1249" cy="686.0473" fill="#FEFECE" filter="url(#f5za2aiy5a90h)" rx="75.1249" ry="26.0473" style="stroke:#A80036;stroke-width:1.5;"/><text fill="#000000" font-family="sans-serif" font-size="14" lengthAdjust="spacing" textLength="55" x="863.6249" y="680.7455">Refuser</text><text fill="#000000" font-family="sans-serif" font-size="14" lengthAdjust="spacing" textLength="90" x="846.1249" y="697.0424">un entretien</text><ellipse cx="609.2318" cy="807.2464" fill="#FEFECE" filter="url(#f5za2aiy5a90h)" rx="89.2318" ry="20.2464" style="stroke:#A80036;stroke-width:1.5;"/><text fill="#000000" font-family="sans-serif" font-size="14" lengthAdjust="spacing" textLength="140" x="539.2318" y="810.093">Consulter les offres</text><ellipse cx="608.9948" cy="115.899" fill="#FEFECE" filter="url(#f5za2aiy5a90h)" rx="74.9948" ry="17.399" style="stroke:#A80036;stroke-width:1.5;"/><text fill="#000000" font-family="sans-serif" font-size="14" lengthAdjust="spacing" textLength="106" x="552.9948" y="119.6465">Noter un stage</text><ellipse cx="609.2229" cy="190.0446" fill="#FEFECE" filter="url(#f5za2aiy5a90h)" rx="93.2229" ry="21.0446" style="stroke:#A80036;stroke-width:1.5;"/><text fill="#000000" font-family="sans-serif" font-size="14" lengthAdjust="spacing" textLength="149" x="534.7229" y="192.8913">Voir les candidatures</text><!--MD5=[db756db308cf6ff8cfeeb51570136b75]
entity fc--><ellipse cx="44" cy="238" fill="#FEFECE" filter="url(#f5za2aiy5a90h)" rx="8" ry="8" style="stroke:#A80036;stroke-width:1.5;"/><path d="M44,246 L44,273 M31,254 L57,254 M44,273 L31,288 M44,273 L57,288 " fill="none" filter="url(#f5za2aiy5a90h)" style="stroke:#A80036;stroke-width:1.5;"/><text fill="#000000" font-family="sans-serif" font-size="14" lengthAdjust="spacing" textLength="76" x="6" y="306.4951">Entreprise</text><!--MD5=[a1b56844d37f21491171a4224be73c27]
entity EC--><ellipse cx="44" cy="575" fill="#FEFECE" filter="url(#f5za2aiy5a90h)" rx="8" ry="8" style="stroke:#A80036;stroke-width:1.5;"/><path d="M44,583 L44,610 M31,591 L57,591 M44,610 L31,625 M44,610 L57,625 " fill="none" filter="url(#f5za2aiy5a90h)" style="stroke:#A80036;stroke-width:1.5;"/><text fill="#000000" font-family="sans-serif" font-size="14" lengthAdjust="spacing" textLength="39" x="24.5" y="643.4951">Ecole</text><!--MD5=[5ffb8338604becaa96ac9f748ef08cde]
entity ET--><ellipse cx="44" cy="796" fill="#FEFECE" filter="url(#f5za2aiy5a90h)" rx="8" ry="8" style="stroke:#A80036;stroke-width:1.5;"/><path d="M44,804 L44,831 M31,812 L57,812 M44,831 L31,846 M44,831 L57,846 " fill="none" filter="url(#f5za2aiy5a90h)" style="stroke:#A80036;stroke-width:1.5;"/><text fill="#000000" font-family="sans-serif" font-size="14" lengthAdjust="spacing" textLength="61" x="13.5" y="864.4951">Etudiant</text><!--MD5=[e9923d9fd4075a960db40f09654be8d8]
link fc to UC1--><path d="M76.1525,228.141 C88.6915,214.19 104.1744,199.682 121,190 C142.471,177.645 167.946,169.396 191.82,163.895 " fill="none" id="fc-to-UC1" style="stroke:#A80036;stroke-width:1.0;"/><polygon fill="#A80036" points="196.888,162.762,187.2325,160.8201,192.0082,163.8519,188.9764,168.6277,196.888,162.762" style="stroke:#A80036;stroke-width:1.0;"/><!--MD5=[671315809142cbf8f95afb4988884e94]
link fc to UC4--><path d="M82.0581,277.47 C111.098,284.108 152.621,293.599 189.487,302.026 " fill="none" id="fc-to-UC4" style="stroke:#A80036;stroke-width:1.0;"/><polygon fill="#A80036" points="194.423,303.154,186.5408,297.2489,189.5487,302.0397,184.7579,305.0477,194.423,303.154" style="stroke:#A80036;stroke-width:1.0;"/><!--MD5=[70fd0aa021e0672eb21bacda73a77dec]
link UC2 to UC4--><path d="M273.5,397.683 C273.5,384.507 273.5,366.439 273.5,351.151 " fill="none" id="UC2-to-UC4" style="stroke:#A80036;stroke-width:1.0;stroke-dasharray:7.0,7.0;"/><polygon fill="#A80036" points="273.5,346.084,269.5,355.084,273.5,351.084,277.5,355.084,273.5,346.084" style="stroke:#A80036;stroke-width:1.0;"/><text fill="#000000" font-family="sans-serif" font-size="13" lengthAdjust="spacing" textLength="52" x="236" y="376.5669">extends</text><!--MD5=[644ec0c5f44471bdaf8dfcd56a4965f7]
reverse link UC4 to UC3--><path d="M273.5,290.459 C273.5,275.132 273.5,257.092 273.5,244.001 " fill="none" id="UC4-backto-UC3" style="stroke:#A80036;stroke-width:1.0;stroke-dasharray:7.0,7.0;"/><polygon fill="#A80036" points="273.5,295.542,277.5,286.542,273.5,290.542,269.5,286.542,273.5,295.542" style="stroke:#A80036;stroke-width:1.0;"/><text fill="#000000" font-family="sans-serif" font-size="13" lengthAdjust="spacing" textLength="52" x="236" y="274.5669">extends</text><!--MD5=[582d57b8c7f439b23fc4c6e887b67795]
reverse link UC1 to UC5--><path d="M273.5,112.728 C273.5,107.822 273.5,102.916 273.5,98.009 " fill="none" id="UC1-backto-UC5" style="stroke:#A80036;stroke-width:1.0;"/><polygon fill="none" points="280.5,112.898,273.5,132.898,266.5,112.898,280.5,112.898" style="stroke:#A80036;stroke-width:1.0;"/><!--MD5=[fccdd5431b25d0b52773826630764164]
reverse link UC1 to UC23--><path d="M372.816,142.092 C426.973,136.084 492.782,128.783 540.999,123.433 " fill="none" id="UC1-backto-UC23" style="stroke:#A80036;stroke-width:1.0;"/><polygon fill="none" points="373.341,149.077,352.691,144.325,371.797,135.162,373.341,149.077" style="stroke:#A80036;stroke-width:1.0;"/><!--MD5=[e85ddcc5166665df40b8527003c72e34]
reverse link UC1 to UC24--><path d="M372.804,163.906 C421.205,169.276 478.916,175.679 525.058,180.798 " fill="none" id="UC1-backto-UC24" style="stroke:#A80036;stroke-width:1.0;"/><polygon fill="none" points="371.797,170.838,352.691,161.675,373.341,156.923,371.797,170.838" style="stroke:#A80036;stroke-width:1.0;"/><!--MD5=[5f56228673e1f4363128748cfc5d10c1]
link EC to UC7--><path d="M63.7688,585.132 C78.1221,570.33 99.1116,551.032 121,539 C139.665,528.74 160.97,520.653 181.589,514.366 " fill="none" id="EC-to-UC7" style="stroke:#A80036;stroke-width:1.0;"/><polygon fill="#A80036" points="186.534,512.889,176.7655,511.6334,181.7433,514.3206,179.0561,519.2985,186.534,512.889" style="stroke:#A80036;stroke-width:1.0;"/><!--MD5=[0e9f33fae14d8000ca5076acbe52a7d8]
link EC to UC8--><path d="M63.6173,609.028 C90.9553,613.474 143.664,622.046 189.292,629.467 " fill="none" id="EC-to-UC8" style="stroke:#A80036;stroke-width:1.0;"/><polygon fill="#A80036" points="194.25,630.274,186.0077,624.8829,189.3147,629.4724,184.7251,632.7794,194.25,630.274" style="stroke:#A80036;stroke-width:1.0;"/><!--MD5=[992c56ecf1ced6032554a8cf34d7aa5c]
reverse link UC8 to UC9--><path d="M273.5,600.545 C273.5,595.623 273.5,590.701 273.5,585.779 " fill="none" id="UC8-backto-UC9" style="stroke:#A80036;stroke-width:1.0;"/><polygon fill="none" points="280.5,600.781,273.5,620.781,266.5,600.781,280.5,600.781" style="stroke:#A80036;stroke-width:1.0;"/><!--MD5=[5e30c9aaf00794a6d13bb437fdb466f7]
link UC10 to UC8--><path d="M273.5,699.812 C273.5,694.944 273.5,690.076 273.5,685.207 " fill="none" id="UC10-to-UC8" style="stroke:#A80036;stroke-width:1.0;"/><polygon fill="none" points="266.5,685.192,273.5,665.192,280.5,685.192,266.5,685.192" style="stroke:#A80036;stroke-width:1.0;"/><!--MD5=[aa9d2cfd37f9b85e856ad6a1e4475780]
link UC1 to UC6--><path d="M347.335,163.739 C366.575,169.22 386.322,177.498 402,190 C523.015,286.503 584.145,474.484 602.177,538.798 " fill="none" id="UC1-to-UC6" style="stroke:#A80036;stroke-width:1.0;stroke-dasharray:7.0,7.0;"/><polygon fill="#A80036" points="603.596,543.924,605.0492,534.1829,602.2617,539.1053,597.3393,536.3178,603.596,543.924" style="stroke:#A80036;stroke-width:1.0;"/><text fill="#000000" font-family="sans-serif" font-size="13" lengthAdjust="spacing" textLength="45" x="436.5" y="217.0669">include</text><!--MD5=[f44bba18f1d0323aea3cfc69b2c53cb9]
link UC4 to UC6--><path d="M330.302,342.671 C353.299,352.645 379.721,365.494 402,380 C477.448,429.124 553.84,504.441 588.61,540.447 " fill="none" id="UC4-to-UC6" style="stroke:#A80036;stroke-width:1.0;stroke-dasharray:7.0,7.0;"/><polygon fill="#A80036" points="592.243,544.223,588.8883,534.9631,588.7774,540.6189,583.1217,540.508,592.243,544.223" style="stroke:#A80036;stroke-width:1.0;"/><text fill="#000000" font-family="sans-serif" font-size="13" lengthAdjust="spacing" textLength="45" x="436.5" y="398.0669">include</text><!--MD5=[112244715b486550f6e93cf080fd984b]
link UC8 to UC6--><path d="M339.991,626.897 C402.23,611.594 494.758,588.844 553.197,574.475 " fill="none" id="UC8-to-UC6" style="stroke:#A80036;stroke-width:1.0;stroke-dasharray:7.0,7.0;"/><polygon fill="#A80036" points="558.394,573.197,548.6995,571.4603,553.5385,574.3902,550.6085,579.2291,558.394,573.197" style="stroke:#A80036;stroke-width:1.0;"/><text fill="#000000" font-family="sans-serif" font-size="13" lengthAdjust="spacing" textLength="45" x="436.5" y="588.0669">include</text><!--MD5=[68f0ca856447fbe7f78ce1866e7616ec]
link UC7 to UC6--><path d="M362.559,512.427 C421.075,524.007 496.365,538.907 548.038,549.133 " fill="none" id="UC7-to-UC6" style="stroke:#A80036;stroke-width:1.0;stroke-dasharray:7.0,7.0;"/><polygon fill="#A80036" points="552.964,550.108,544.9111,544.4378,548.059,549.1379,543.3589,552.2857,552.964,550.108" style="stroke:#A80036;stroke-width:1.0;"/><text fill="#000000" font-family="sans-serif" font-size="13" lengthAdjust="spacing" textLength="45" x="436.5" y="524.0669">include</text><!--MD5=[07e0b4978cbb295b70ada53c7155140b]
link UC11 to UC6--><path d="M342.709,773.558 C363.034,768.205 384.527,760.138 402,748 C420.544,735.118 416.527,723.444 432,707 C479.712,656.295 544.648,606.545 580.82,580.236 " fill="none" id="UC11-to-UC6" style="stroke:#A80036;stroke-width:1.0;stroke-dasharray:7.0,7.0;"/><polygon fill="#A80036" points="585.085,577.146,575.4499,579.1866,581.0358,580.0793,580.1431,585.6653,585.085,577.146" style="stroke:#A80036;stroke-width:1.0;"/><text fill="#000000" font-family="sans-serif" font-size="13" lengthAdjust="spacing" textLength="45" x="436.5" y="655.0669">include</text><!--MD5=[945f1a278d6531472180f19dd296e279]
link UC15 to UC6--><path d="M349.119,844.9122 C367.226,838.9376 385.972,831.1095 402,821 C500.387,758.945 571.759,632.957 597.497,582.553 " fill="none" id="UC15-to-UC6" style="stroke:#A80036;stroke-width:1.0;stroke-dasharray:7.0,7.0;"/><polygon fill="#A80036" points="599.845,577.916,592.2113,584.139,597.5867,582.3769,599.3488,587.7523,599.845,577.916" style="stroke:#A80036;stroke-width:1.0;"/><text fill="#000000" font-family="sans-serif" font-size="13" lengthAdjust="spacing" textLength="45" x="436.5" y="746.0669">include</text><!--MD5=[451382ddc654ca3310e30c27e6b1c079]
link ET to UC11--><path d="M74.7417,821.3785 C107.446,815.197 161.083,805.059 204.252,796.9 " fill="none" id="ET-to-UC11" style="stroke:#A80036;stroke-width:1.0;"/><polygon fill="#A80036" points="209.195,795.965,199.6087,793.7061,204.282,796.8936,201.0945,801.5669,209.195,795.965" style="stroke:#A80036;stroke-width:1.0;"/><!--MD5=[bdd3ed35c17a390a1241cd2f038c44dd]
link ET to UC15--><path d="M74.7417,831.5756 C101.426,835.6809 142.046,841.9302 179.545,847.6993 " fill="none" id="ET-to-UC15" style="stroke:#A80036;stroke-width:1.0;"/><polygon fill="#A80036" points="184.576,848.4732,176.2886,843.1517,179.6341,847.7132,175.0726,851.0587,184.576,848.4732" style="stroke:#A80036;stroke-width:1.0;"/><!--MD5=[0d310c3f7da8d20e6b42e5a7b383c8ee]
reverse link UC15 to UC22--><path d="M365.558,846.983 C419.458,838.0938 486.752,826.9959 536.758,818.7491 " fill="none" id="UC15-backto-UC22" style="stroke:#A80036;stroke-width:1.0;stroke-dasharray:7.0,7.0;"/><polygon fill="#A80036" points="360.385,847.8361,369.9163,850.317,365.3182,847.0218,368.6134,842.4238,360.385,847.8361" style="stroke:#A80036;stroke-width:1.0;"/><text fill="#000000" font-family="sans-serif" font-size="13" lengthAdjust="spacing" textLength="52" x="433" y="823.0669">extends</text><!--MD5=[c86c2bd0fd22b5e2c0c36a4e6711df0c]
reverse link UC22 to UC16--><path d="M682.767,820.7737 C728.864,829.4993 787.714,840.6387 830.913,848.8157 " fill="none" id="UC22-backto-UC16" style="stroke:#A80036;stroke-width:1.0;stroke-dasharray:7.0,7.0;"/><polygon fill="#A80036" points="677.78,819.8298,685.879,825.434,682.6928,820.7598,687.3669,817.5736,677.78,819.8298" style="stroke:#A80036;stroke-width:1.0;"/><text fill="#000000" font-family="sans-serif" font-size="13" lengthAdjust="spacing" textLength="52" x="733" y="826.0669">extends</text><!--MD5=[f745fb9f487d6c096a660300876940ae]
reverse link UC22 to UC18--><path d="M693.014,796.92 C733.385,792.018 781.379,786.19 819.886,781.514 " fill="none" id="UC22-backto-UC18" style="stroke:#A80036;stroke-width:1.0;stroke-dasharray:7.0,7.0;"/><polygon fill="#A80036" points="687.624,797.574,697.0406,800.4598,692.5875,796.9712,696.0761,792.5182,687.624,797.574" style="stroke:#A80036;stroke-width:1.0;"/><text fill="#000000" font-family="sans-serif" font-size="13" lengthAdjust="spacing" textLength="52" x="733" y="781.0669">extends</text><!--MD5=[bef6cdb1e6595737f82a0d50d22b4a6f]
reverse link UC22 to UC19--><path d="M655.605,787.292 C707.293,764.955 791.118,728.731 843.268,706.195 " fill="none" id="UC22-backto-UC19" style="stroke:#A80036;stroke-width:1.0;stroke-dasharray:7.0,7.0;"/><polygon fill="#A80036" points="651.014,789.276,660.8623,789.3789,655.604,787.2931,657.6897,782.0348,651.014,789.276" style="stroke:#A80036;stroke-width:1.0;"/><text fill="#000000" font-family="sans-serif" font-size="13" lengthAdjust="spacing" textLength="52" x="733" y="728.0669">extends</text><!--MD5=[273745bb56958ab69b156f2066a0288b]
@startuml
left to right direction
actor "Entreprise" as fc
actor "Ecole" as EC
actor "Etudiant" as ET
rectangle App {
  usecase "Gestion des stages" as UC1
  usecase "Ajouter un offre" as UC2
  usecase "Annuler un offre" as UC3
  usecase "Consulter toutes les offres" as UC4
  usecase (Convoquer les étudiants \npour un entretien) as UC5
  usecase "S'authentifier" as UC6
  usecase "Voir les entreprises inscrites" as UC7
  usecase "Gestion des étudiants" as UC8
  usecase "Ajouter " as UC9
  usecase "Supprimer" as UC10
  usecase "Améliorer son CV" as UC11
  usecase "Consulter les entreprises" as UC15
  usecase "Postule\nà une offre" as UC16
  usecase "Accepter\nun entretien" as UC18
  usecase "Refuser\nun entretien" as UC19
  usecase "Consulter les offres" as UC22
  usecase "Noter un stage" as UC23
  usecase "Voir les candidatures" as UC24
}
' Pour l'entreprise
fc - -> UC1
fc - -> UC4 
UC4 <.left. UC2 :extends
UC4 <.UC3 :extends
UC1 <|- UC5
UC1 <|-down- UC23
UC1 <|-down- UC24

' Pour l'école
EC - -> UC7
EC - -> UC8
UC8 <|-right- UC9
UC8 <|-left- UC10

' Pour les authentifications con
UC1 .down.> UC6:include
UC4 .down.> UC6:include
UC8 .down.> UC6:include
UC7 .down.> UC6:include
UC11 .down.> UC6:include
UC15 .down.> UC6:include

' Pour l'étudiant
ET - -> UC11
ET - -> UC15
UC15 <.down. UC22 :extends
UC22 <.. UC16 : extends
UC22 <.down. UC18 : extends
UC22 <.down. UC19 : extends
@enduml

@startuml
left to right direction
actor "Entreprise" as fc
actor "Ecole" as EC
actor "Etudiant" as ET
rectangle App {
  usecase "Gestion des stages" as UC1
  usecase "Ajouter un offre" as UC2
  usecase "Annuler un offre" as UC3
  usecase "Consulter toutes les offres" as UC4
  usecase (Convoquer les étudiants \npour un entretien) as UC5
  usecase "S'authentifier" as UC6
  usecase "Voir les entreprises inscrites" as UC7
  usecase "Gestion des étudiants" as UC8
  usecase "Ajouter " as UC9
  usecase "Supprimer" as UC10
  usecase "Améliorer son CV" as UC11
  usecase "Consulter les entreprises" as UC15
  usecase "Postule\nà une offre" as UC16
  usecase "Accepter\nun entretien" as UC18
  usecase "Refuser\nun entretien" as UC19
  usecase "Consulter les offres" as UC22
  usecase "Noter un stage" as UC23
  usecase "Voir les candidatures" as UC24
}
fc - -> UC1
fc - -> UC4 
UC4 <.left. UC2 :extends
UC4 <.UC3 :extends
UC1 <|- UC5
UC1 <|-down- UC23
UC1 <|-down- UC24

EC - -> UC7
EC - -> UC8
UC8 <|-right- UC9
UC8 <|-left- UC10

UC1 .down.> UC6:include
UC4 .down.> UC6:include
UC8 .down.> UC6:include
UC7 .down.> UC6:include
UC11 .down.> UC6:include
UC15 .down.> UC6:include

ET - -> UC11
ET - -> UC15
UC15 <.down. UC22 :extends
UC22 <.. UC16 : extends
UC22 <.down. UC18 : extends
UC22 <.down. UC19 : extends
@enduml

PlantUML version 1.2021.2beta9(Unknown compile time)
(GPL source distribution)
Java Runtime: Java(TM) SE Runtime Environment
JVM: Java HotSpot(TM) 64-Bit Server VM
Default Encoding: UTF-8
Language: en
Country: US
--></g></svg>